<svg preserveAspectRatio="none" overflow="visible" style="display: block;" width="20" height="20" viewBox="0 0 20 20" fill="none" xmlns="http://www.w3.org/2000/svg">
<g id="alarm-clock">
<path id="Icon" d="M4.16699 2.5L1.66699 5M18.3337 5L15.8337 2.5M5.00033 15.8333L3.33366 17.5M15.0003 15.8333L16.667 17.5M10.0003 7.5V10.8333L11.667 12.5M10.0003 17.5C11.7684 17.5 13.4641 16.7976 14.7144 15.5474C15.9646 14.2971 16.667 12.6014 16.667 10.8333C16.667 9.06522 15.9646 7.36953 14.7144 6.11929C13.4641 4.86905 11.7684 4.16667 10.0003 4.16667C8.23222 4.16667 6.53652 4.86905 5.28628 6.11929C4.03604 7.36953 3.33366 9.06522 3.33366 10.8333C3.33366 12.6014 4.03604 14.2971 5.28628 15.5474C6.53652 16.7976 8.23222 17.5 10.0003 17.5Z" stroke="#DDA36B" stroke-width="1.5" stroke-linecap="round" stroke-linejoin="round"/>
</g>
</svg>
